<?xml version="1.0" encoding="utf-8"?>
<svg version="1.1" id="Runen" xmlns="http://www.w3.org/2000/svg" xmlns:xlink="http://www.w3.org/1999/xlink" width="490" height="300" viewBox="0 0 490 300">
<g>
	<path d="M151.401,281.043l13.151-13.151l-13.151-13.151l2.381-2.381l13.151,13.151l13.151-13.151l2.381,2.381l-13.151,13.151
		l13.151,13.151l-2.381,2.381l-13.151-13.151l-13.151,13.151L151.401,281.043z"/>
	<path d="M189.272,245.783h2.381l12.244,12.245l-2.381,2.381l-8.843-8.844v38.434h-3.401V245.783z"/>
	<path d="M222.04,245.783h2.381l15.532,15.532l-13.151,13.151l13.151,13.151l-2.381,2.381l-12.131-12.131v12.131h-3.401V245.783z
		 M235.191,261.315l-9.75-9.75v19.5L235.191,261.315z"/>
	<path d="M246.757,245.783h2.381l15.532,15.532v28.684h-3.402v-27.323l-11.109-11.11v38.434h-3.401V245.783z"/>
	<path d="M277.03,268.571l-7.256-7.256l2.381-2.381l4.875,4.875v-18.026h3.4v21.428l7.256,7.256l-2.381,2.381l-4.875-4.875v18.026
		h-3.4V268.571z"/>
	<path d="M292.791,245.783h2.381l9.863,9.864l9.863-9.864h2.381v44.216h-3.402v-38.434l-8.842,8.844l-8.844-8.844v38.434h-3.4
		V245.783z"/>
	<path d="M329.639,268.571l-7.256-7.256l2.381-2.381l4.875,4.875v-18.026h3.402v21.428l7.256,7.256l-2.381,2.381l-4.875-4.875
		v18.026h-3.402V268.571z"/>
</g>
<g>
	<path d="M12.529,158.031h2.551v9.101l9.101-9.101l1.786,1.786L15.08,170.704v3.828l9.101-9.101l1.786,1.786L15.08,178.104v13.098
		h-2.551V158.031z"/>
	<path d="M31.067,158.031h1.786l11.652,11.652v21.519h-2.551v-20.498l-8.335-8.335v28.833h-2.551V158.031z"/>
	<path d="M49.605,158.031h2.551v5.699l10.887,10.887l-10.887,10.887v5.698h-2.551V158.031z M59.471,174.617l-7.314-7.314v14.629
		L59.471,174.617z"/>
	<path d="M66.868,158.031h1.786l9.186,9.187l-1.786,1.786l-6.634-6.635v3.827l8.42,8.421l-1.786,1.786l-6.634-6.635v21.434h-2.551
		V158.031z"/>
	<path d="M82.94,158.031h1.786l11.652,11.652l-9.866,9.866l9.866,9.866l-1.786,1.786l-9.101-9.101v9.101H82.94V158.031z
		 M92.805,169.684l-7.314-7.314v14.629L92.805,169.684z"/>
	<path d="M97.651,174.617l11.652-11.652l1.786,1.786l-9.866,9.866l9.866,9.866l-1.786,1.786L97.651,174.617z"/>
	<path d="M116.19,184.483l9.866-9.866l-9.866-9.866l1.786-1.786l9.866,9.866l9.866-9.866l1.786,1.786l-9.866,9.866l9.866,9.866
		l-1.786,1.786l-9.866-9.866l-9.866,9.866L116.19,184.483z"/>
	<path d="M144.593,158.031h1.786l9.186,9.187l-8.42,8.42v15.564h-2.551V158.031z M151.992,167.218l-4.848-4.849v9.696
		L151.992,167.218z"/>
	<path d="M159.389,158.031h2.551v10.632l8.335,8.335v-18.967h2.551v33.171h-2.551V180.57l-8.335-8.335v18.967h-2.551V158.031z"/>
	<path d="M182.095,175.127l-5.443-5.443l1.786-1.786l3.657,3.657v-13.523h2.551v16.075l5.443,5.443l-1.786,1.786l-3.658-3.657
		v13.523h-2.551V175.127z"/>
	<path d="M193.914,158.031h2.551v33.171h-2.551V158.031z"/>
	<path d="M200.292,169.684l11.652-11.652l1.786,1.786l-9.866,9.866l9.866,9.866l-1.786,1.786L200.292,169.684z M210.158,189.416
		l9.866-9.866l-9.866-9.866l1.786-1.786l11.652,11.652l-11.652,11.652L210.158,189.416z"/>
	<path d="M226.228,182.017l1.786-1.786l6.634,6.634v-28.833h1.786l9.186,9.187l-1.786,1.786l-6.634-6.635v28.833h-1.786
		L226.228,182.017z"/>
	<path d="M249.444,158.031h1.786l7.399,7.4l7.399-7.4l1.786,1.786l-9.186,9.187l-6.635-6.635v24.495l6.635-6.634l9.186,9.186
		l-1.786,1.786l-7.399-7.399l-7.399,7.399h-1.786V158.031z"/>
	<path d="M279.548,167.728l-7.909-7.91l1.785-1.786l6.124,6.124v-6.124h2.552v6.124l6.123-6.124l1.787,1.786l-7.91,7.91v23.475
		h-2.552V167.728z"/>
	<path d="M302.253,173.469l-6.634,6.634h-1.786v-22.071h2.552v17.733l6.634-6.634h1.786v22.071h-2.552V173.469z"/>
	<path d="M315.264,162.88l-6.124,6.124l-1.786-1.786l9.186-9.187l9.186,9.187l-1.786,1.786l-6.124-6.124v28.322h-2.551V162.88z"/>
	<path d="M329.549,158.031h1.786l9.186,9.187l-7.399,7.399l7.399,7.399l-9.186,9.186h-1.786V158.031z M336.948,167.218l-4.849-4.849
		v9.696L336.948,167.218z M336.948,182.017l-4.849-4.848v9.695L336.948,182.017z"/>
	<path d="M345.621,158.031h1.785l7.4,7.4l7.398-7.4h1.787v33.171h-2.552v-28.833l-6.634,6.635l-6.635-6.635v28.833h-2.551V158.031z"
		/>
	<path d="M369.092,158.031h1.785l7.4,7.4l7.398-7.4h1.787v33.171h-2.552v-15.564l-6.634-6.634l-6.635,6.634v15.564h-2.551V158.031z
		 M376.49,167.218l-4.848-4.849v9.696L376.49,167.218z M384.911,162.369l-4.849,4.849l4.849,4.848V162.369z"/>
	<path d="M392.562,158.031h1.786l9.186,9.187l-1.786,1.786l-6.634-6.635v28.833h-2.552V158.031z"/>
	<path d="M403.531,174.617l9.186-9.186l9.186,9.186l-9.186,9.186L403.531,174.617z M418.33,174.617l-5.613-5.613l-5.613,5.613
		l5.613,5.613L418.33,174.617z"/>
	<path d="M425.769,162.965h1.786l9.866,9.866l9.866-9.866h1.785v23.305h-1.785l-9.866-9.866l-9.866,9.866h-1.786V162.965z
		 M435.635,174.617l-7.314-7.314v14.629L435.635,174.617z M446.522,167.303l-7.314,7.314l7.314,7.314V167.303z"/>
	<path d="M454.172,189.416l9.866-9.866l-9.866-9.866l11.652-11.652l11.652,11.652l-9.866,9.866l9.866,9.866l-1.786,1.786
		l-9.866-9.866l-9.866,9.866L454.172,189.416z M473.905,169.684l-8.08-8.08l-8.08,8.08l8.08,8.08L473.905,169.684z"/>
	<path d="M10.253,194.882h3.232v7.4l7.399-7.4l2.296,2.297l-9.696,9.696v3.827l7.399-7.399l2.296,2.296l-9.696,9.696v12.758h-3.232
		V194.882z"/>
	<path d="M28.281,194.882h2.296l11.142,11.143v22.028h-3.232v-20.668l-6.974-6.974v27.642h-3.232V194.882z"/>
	<path d="M46.819,194.882h3.232v5.869l10.716,10.717l-10.716,10.717v5.868h-3.232V194.882z M56.175,211.468l-6.124-6.124v12.247
		L56.175,211.468z"/>
	<path d="M64.592,194.882h2.296l8.675,8.676l-2.296,2.297l-5.443-5.443v3.827l7.74,7.739l-2.296,2.297l-5.443-5.443v19.222h-3.232
		V194.882z"/>
	<path d="M80.664,194.882h2.296l11.652,11.652l-9.611,9.611l9.611,9.61l-2.296,2.297l-8.42-8.42v8.42h-3.232V194.882z
		 M90.02,206.534l-6.124-6.123v12.247L90.02,206.534z"/>
	<path d="M107.538,199.815l2.296,2.296l-9.356,9.356l9.356,9.355l-2.296,2.297l-11.652-11.652L107.538,199.815z"/>
	<path d="M114.935,220.823l9.355-9.355l-9.355-9.356l2.296-2.296l9.355,9.355l9.356-9.355l2.296,2.296l-9.356,9.356l9.356,9.355
		l-2.296,2.297l-9.356-9.356l-9.355,9.356L114.935,220.823z"/>
	<path d="M143.338,194.882h2.296l9.186,9.187l-8.25,8.25v15.734h-3.232V194.882z M150.227,204.068l-3.657-3.657v7.314
		L150.227,204.068z"/>
	<path d="M158.645,194.882h3.232v10.802l6.974,6.975v-17.776h3.232v33.171h-3.232v-10.802l-6.974-6.975v17.776h-3.232V194.882z"/>
	<path d="M181.01,212.147l-5.103-5.103l2.296-2.297l2.807,2.807v-12.673h3.232v15.905l5.103,5.104l-2.296,2.296l-2.807-2.807v12.673
		h-3.232V212.147z"/>
	<path d="M193.17,194.882h3.232v33.171h-3.232V194.882z"/>
	<path d="M200.228,206.534l11.652-11.652l2.296,2.297l-9.356,9.355l9.356,9.356l-2.296,2.296L200.228,206.534z M210.094,225.756
		l9.355-9.355l-9.355-9.355l2.296-2.297l11.652,11.652l-11.652,11.652L210.094,225.756z"/>
	<path d="M226.59,219.377l2.296-2.296l5.784,5.783v-27.982h2.636l8.676,8.676l-2.297,2.297l-5.783-5.784v27.982h-2.637
		L226.59,219.377z"/>
	<path d="M249.848,194.882h2.297l6.889,6.89l6.89-6.89l2.296,2.297l-9.186,9.186l-5.953-5.953v22.113l5.953-5.954l9.186,9.186
		l-2.296,2.297l-6.89-6.89l-6.889,6.89h-2.297V194.882z"/>
	<path d="M279.613,204.748l-7.569-7.569l2.296-2.297l5.273,5.273v-5.273h3.231v5.273l5.273-5.273l2.297,2.297l-7.57,7.569v23.305
		h-3.231V204.748z"/>
	<path d="M302.02,211.51l-5.443,5.443h-2.296v-22.071h3.231v16.543l5.443-5.443h2.297v22.071h-3.232V211.51z"/>
	<path d="M315.37,201.091l-5.272,5.273l-2.297-2.296l9.186-9.187l9.186,9.187l-2.297,2.296l-5.272-5.273v26.962h-3.232V201.091z"/>
	<path d="M329.996,194.882h2.297l9.186,9.187l-7.4,7.399l7.4,7.399l-9.186,9.186h-2.297V194.882z M336.885,204.068l-3.656-3.657
		v7.314L336.885,204.068z M336.885,218.867l-3.656-3.657v7.314L336.885,218.867z"/>
	<path d="M346.578,194.882h2.297l6.889,6.89l6.89-6.89h2.296v33.171h-3.231v-27.642l-5.954,5.953l-5.953-5.953v27.642h-3.232
		V194.882z"/>
	<path d="M370.049,194.882h2.297l6.889,6.89l6.889-6.89h2.297v33.171h-3.232v-15.734l-5.953-5.954l-5.953,5.954v15.734h-3.232
		V194.882z M376.938,204.068l-3.656-3.657v7.314L376.938,204.068z M385.188,200.411l-3.656,3.657l3.656,3.657V200.411z"/>
	<path d="M393.52,194.882h2.297l8.675,8.676l-2.296,2.297l-5.443-5.443v27.642h-3.232V194.882z"/>
	<path d="M404.489,211.468l9.696-9.696l9.696,9.696l-9.696,9.695L404.489,211.468z M419.288,211.468l-5.104-5.104l-5.103,5.104
		l5.103,5.103L419.288,211.468z"/>
	<path d="M427.704,199.815H430l9.356,9.355l9.355-9.355h2.296v23.305h-2.296l-9.355-9.356L430,223.12h-2.296V199.815z
		 M437.06,211.468l-6.124-6.124v12.247L437.06,211.468z M447.777,205.344l-6.124,6.124l6.124,6.123V205.344z"/>
	<path d="M456.108,225.756l9.525-9.525l-9.525-9.526l11.822-11.822l11.822,11.822l-9.526,9.526l9.526,9.525l-2.297,2.297
		l-9.525-9.526l-9.526,9.526L456.108,225.756z M475.159,206.704l-7.229-7.229l-7.229,7.229l7.229,7.229L475.159,206.704z"/>
</g>
<g>
	<path d="M30.671,30.752l-5.306,5.306h-1.429V18.406h2.041v14.183l5.306-5.306h1.429v17.652h-2.041V30.752z"/>
	<path d="M40.162,34.12l-2.925,2.925l-1.428-1.429l4.354-4.354V18.406h2.041v10.815l2.925-2.925l1.429,1.429l-4.354,4.354v12.856
		h-2.041V34.12z"/>
	<path d="M49.618,18.406h1.429l9.319,9.319l-7.891,7.891l7.891,7.891l-1.429,1.429l-7.278-7.278v7.278h-2.041V18.406z
		 M57.509,27.725l-5.85-5.85v11.699L57.509,27.725z"/>
	<path d="M64.72,34.12l-2.925,2.925l-1.428-1.429l4.354-4.354V18.406h2.041v10.815l2.925-2.925l1.429,1.429l-4.354,4.354v12.856
		H64.72V34.12z"/>
	<path d="M74.177,18.406h1.429l9.319,9.319l-7.891,7.891l7.891,7.891l-1.429,1.429l-7.278-7.278v7.278h-2.041V18.406z
		 M82.068,27.725l-5.85-5.85v11.699L82.068,27.725z"/>
	<path d="M89.007,25.752c0-1.395,1.157-2.551,2.551-2.551c1.394,0,2.551,1.156,2.551,2.551s-1.157,2.551-2.551,2.551
		C90.164,28.303,89.007,27.147,89.007,25.752z M89.007,37.588c0-1.395,1.157-2.551,2.551-2.551c1.394,0,2.551,1.156,2.551,2.551
		s-1.157,2.551-2.551,2.551C90.164,40.139,89.007,38.983,89.007,37.588z"/>
	<path d="M104.552,32.079l-6.326-6.326v-7.347h2.041v6.53l4.285,4.285V18.406h2.041v10.815l4.286-4.285v-6.53h2.041v7.347
		l-6.326,6.326v12.856h-2.041V32.079z"/>
	<path d="M120.675,30.752l-5.306,5.306l-1.428-1.429l6.734-6.734v-9.489h2.041v26.529h-2.041V30.752z"/>
	<path d="M126.798,18.406h2.041v9.489l6.734,6.734l-1.429,1.429l-5.306-5.306v14.183h-2.041V18.406z"/>
	<path d="M138.635,25.752c0-1.395,1.157-2.551,2.551-2.551c1.394,0,2.551,1.156,2.551,2.551s-1.157,2.551-2.551,2.551
		C139.792,28.303,138.635,27.147,138.635,25.752z M138.635,37.588c0-1.395,1.157-2.551,2.551-2.551c1.394,0,2.551,1.156,2.551,2.551
		s-1.157,2.551-2.551,2.551C139.792,40.139,138.635,38.983,138.635,37.588z"/>
	<path d="M153.568,30.752l-5.306,5.306l-1.428-1.429l6.734-6.734v-9.489h2.041v26.529h-2.041V30.752z"/>
	<path d="M159.69,18.406h2.041v9.489l6.734,6.734l-1.429,1.429l-5.306-5.306v14.183h-2.041V18.406z"/>
	<path d="M171.528,18.406h2.041v9.489l6.734,6.734l-1.429,1.429l-5.306-5.306v14.183h-2.041V18.406z"/>
	<path d="M186.698,34.12l-2.925,2.925l-1.428-1.429l4.354-4.354V18.406h2.041v10.815l2.925-2.925l1.428,1.429l-4.354,4.354v12.856
		h-2.041V34.12z"/>
	<path d="M196.155,18.406h1.429l9.319,9.319l-7.891,7.891l7.891,7.891l-1.429,1.429l-7.278-7.278v7.278h-2.041V18.406z
		 M204.046,27.725l-5.85-5.85v11.699L204.046,27.725z"/>
	<path d="M210.985,25.752c0-1.395,1.157-2.551,2.551-2.551s2.551,1.156,2.551,2.551s-1.156,2.551-2.551,2.551
		S210.985,27.147,210.985,25.752z M210.985,37.588c0-1.395,1.157-2.551,2.551-2.551s2.551,1.156,2.551,2.551
		s-1.156,2.551-2.551,2.551S210.985,38.983,210.985,37.588z"/>
	<path d="M226.529,32.079l-6.326-6.326v-7.347h2.041v6.53l4.285,4.285V18.406h2.041v10.815l4.286-4.285v-6.53h2.041v7.347
		l-6.326,6.326v12.856h-2.041V32.079z"/>
	<path d="M242.653,30.752l-5.306,5.306l-1.428-1.429l6.734-6.734v-9.489h2.041v26.529h-2.041V30.752z"/>
	<path d="M248.776,18.406h2.041v9.489l6.734,6.734l-1.429,1.429l-5.306-5.306v14.183h-2.041V18.406z"/>
	<path d="M260.614,25.752c0-1.395,1.156-2.551,2.551-2.551s2.551,1.156,2.551,2.551s-1.156,2.551-2.551,2.551
		S260.614,27.147,260.614,25.752z M260.614,37.588c0-1.395,1.156-2.551,2.551-2.551s2.551,1.156,2.551,2.551
		s-1.156,2.551-2.551,2.551S260.614,38.983,260.614,37.588z"/>
	<path d="M276.157,32.079l-6.326-6.326v-7.347h2.04v6.53l4.286,4.285V18.406h2.04v10.815l4.286-4.285v-6.53h2.04v7.347l-6.326,6.326
		v12.856h-2.04V32.079z"/>
	<path d="M289.9,34.12l-2.925,2.925l-1.429-1.429l4.354-4.354V18.406h2.041v10.815l2.925-2.925l1.429,1.429l-4.354,4.354v12.856
		H289.9V34.12z"/>
	<path d="M299.357,18.406h2.04v4.558l8.707,8.707l-8.707,8.707v4.558h-2.04V18.406z M307.247,31.67l-5.851-5.85V37.52L307.247,31.67
		z"/>
	<path d="M317.86,30.752l-5.306,5.306l-1.429-1.429l6.734-6.734v-9.489h2.041v26.529h-2.041V30.752z"/>
	<path d="M323.984,18.406h2.04v9.489l6.734,6.734l-1.428,1.429l-5.307-5.306v14.183h-2.04V18.406z"/>
	<path d="M335.821,25.752c0-1.395,1.156-2.551,2.551-2.551s2.551,1.156,2.551,2.551s-1.156,2.551-2.551,2.551
		S335.821,27.147,335.821,25.752z M335.821,37.588c0-1.395,1.156-2.551,2.551-2.551s2.551,1.156,2.551,2.551
		s-1.156,2.551-2.551,2.551S335.821,38.983,335.821,37.588z"/>
	<path d="M347.078,44.935h-2.04V18.406h2.04v11.224l4.694-4.693v-6.53h2.04v7.347l-6.734,6.734V44.935z"/>
	<path d="M357.897,18.406h1.428l9.319,9.319v17.21h-2.04V28.542l-6.667-6.666v23.06h-2.04V18.406z"/>
	<path d="M372.727,18.406h2.04v9.489l6.734,6.734l-1.428,1.429l-5.307-5.306v14.183h-2.04V18.406z"/>
	<path d="M384.564,18.406h1.428l9.319,9.319v17.21h-2.04V28.542l-6.667-6.666v23.06h-2.04V18.406z"/>
	<path d="M399.395,18.406h2.04v9.489l6.734,6.734l-1.428,1.429l-5.307-5.306v14.183h-2.04V18.406z"/>
	<path d="M413.272,44.935h-2.04V18.406h2.04v11.224l4.694-4.693v-6.53h2.04v7.347l-6.734,6.734V44.935z M414.088,19.936
		c0-0.85,0.681-1.53,1.531-1.53c0.85,0,1.53,0.681,1.53,1.53c0,0.851-0.681,1.531-1.53,1.531
		C414.769,21.467,414.088,20.787,414.088,19.936z"/>
	<path d="M424.089,25.752c0-1.395,1.156-2.551,2.551-2.551s2.551,1.156,2.551,2.551s-1.156,2.551-2.551,2.551
		S424.089,27.147,424.089,25.752z M424.089,37.588c0-1.395,1.156-2.551,2.551-2.551s2.551,1.156,2.551,2.551
		s-1.156,2.551-2.551,2.551S424.089,38.983,424.089,37.588z"/>
	<path d="M436.641,34.12l-2.925,2.925l-1.429-1.429l4.354-4.354V18.406h2.041v10.815l2.925-2.925l1.429,1.429l-4.354,4.354v12.856
		h-2.041V34.12z"/>
	<path d="M446.097,18.406h1.428l9.319,9.319l-7.891,7.891l7.891,7.891l-1.428,1.429l-7.279-7.278v7.278h-2.04V18.406z
		 M453.988,27.725l-5.851-5.85v11.699L453.988,27.725z"/>
	<path d="M460.928,25.752c0-1.395,1.156-2.551,2.551-2.551s2.551,1.156,2.551,2.551s-1.156,2.551-2.551,2.551
		S460.928,27.147,460.928,25.752z M460.928,37.588c0-1.395,1.156-2.551,2.551-2.551s2.551,1.156,2.551,2.551
		s-1.156,2.551-2.551,2.551S460.928,38.983,460.928,37.588z"/>
	<path d="M17.303,51.004h2.041v26.529h-2.041V51.004z"/>
	<path d="M23.426,51.004h2.041v9.489l6.734,6.734l-1.429,1.429l-5.306-5.306v14.183h-2.041V51.004z"/>
	<path d="M35.263,51.004h2.041v9.489l6.734,6.734l-1.429,1.429l-5.306-5.306v14.183h-2.041V51.004z"/>
	<path d="M50.433,66.718l-2.925,2.925l-1.428-1.429l4.354-4.354V51.004h2.041V61.82l2.925-2.925l1.429,1.429l-4.354,4.354v12.856
		h-2.041V66.718z"/>
	<path d="M59.889,51.004h2.041v9.489l6.734,6.734l-1.429,1.429l-5.306-5.306v14.183h-2.041V51.004z"/>
	<path d="M71.727,58.351c0-1.395,1.157-2.551,2.551-2.551c1.394,0,2.551,1.156,2.551,2.551s-1.157,2.551-2.551,2.551
		C72.884,60.902,71.727,59.746,71.727,58.351z M71.727,70.187c0-1.395,1.157-2.551,2.551-2.551c1.394,0,2.551,1.156,2.551,2.551
		s-1.157,2.551-2.551,2.551C72.884,72.738,71.727,71.582,71.727,70.187z"/>
	<path d="M80.945,51.004h1.429l7.347,7.347l-1.429,1.429l-5.306-5.306v23.06h-2.041V51.004z"/>
	<path d="M94.075,66.718l-2.925,2.925l-1.428-1.429l4.354-4.354V51.004h2.041V61.82l2.925-2.925l1.429,1.429l-4.354,4.354v12.856
		h-2.041V66.718z"/>
	<path d="M103.531,51.004h2.041v9.489l6.734,6.734l-1.429,1.429l-5.306-5.306v14.183h-2.041V51.004z"/>
	<path d="M119.042,67.16c-1.19-0.408-2.041-1.564-2.041-2.891s0.851-2.482,2.041-2.891v-6.904l-5.306,5.306l-1.428-1.429
		l7.346-7.347h1.429v10.374c1.19,0.408,2.041,1.564,2.041,2.891s-0.85,2.482-2.041,2.891v10.374h-2.041V67.16z"/>
	<path d="M130.573,66.718l-2.925,2.925l-1.428-1.429l4.354-4.354V51.004h2.041V61.82l2.925-2.925l1.429,1.429l-4.354,4.354v12.856
		h-2.041V66.718z"/>
	<path d="M146.763,63.351l-5.306,5.306h-1.429V51.004h2.041v14.183l5.306-5.306h1.429v17.652h-2.041V63.351z"/>
	<path d="M152.921,58.351c0-1.395,1.157-2.551,2.551-2.551c1.394,0,2.551,1.156,2.551,2.551s-1.157,2.551-2.551,2.551
		C154.078,60.902,152.921,59.746,152.921,58.351z M152.921,70.187c0-1.395,1.157-2.551,2.551-2.551c1.394,0,2.551,1.156,2.551,2.551
		s-1.157,2.551-2.551,2.551C154.078,72.738,152.921,71.582,152.921,70.187z"/>
	<path d="M162.139,51.004h1.429l7.347,7.347l-5.918,5.918l5.918,5.918l-7.347,7.347h-1.429V51.004z M168.058,58.351l-3.877-3.877
		v7.754L168.058,58.351z M168.058,70.187l-3.877-3.877v7.755L168.058,70.187z"/>
	<path d="M177.309,69.677l-2.925,2.925l-1.429-1.429l4.354-4.354v-3.061l-2.925,2.925l-1.429-1.429l4.354-4.354v-9.897h2.041v7.856
		l2.925-2.925l1.429,1.429l-4.354,4.354v3.061l2.925-2.925l1.429,1.429l-4.354,4.354v9.897h-2.041V69.677z"/>
	<path d="M193.501,54.474l-5.306,5.306l-1.428-1.429l7.346-7.347h1.429v26.529h-2.041V54.474z"/>
	<path d="M202.957,66.718l-2.925,2.925l-1.428-1.429l4.354-4.354V51.004h2.041V61.82l2.925-2.925l1.428,1.429l-4.354,4.354v12.856
		h-2.041V66.718z"/>
	<path d="M212.413,58.351c0-1.395,1.157-2.551,2.551-2.551c1.394,0,2.551,1.156,2.551,2.551s-1.157,2.551-2.551,2.551
		C213.57,60.902,212.413,59.746,212.413,58.351z M212.413,70.187c0-1.395,1.157-2.551,2.551-2.551c1.394,0,2.551,1.156,2.551,2.551
		s-1.157,2.551-2.551,2.551C213.57,72.738,212.413,71.582,212.413,70.187z"/>
	<path d="M221.632,51.004h2.041v7.278l7.278-7.278l1.429,1.429l-8.707,8.707v3.061l7.278-7.278l1.429,1.429l-8.707,8.707v10.476
		h-2.041V51.004z"/>
	<path d="M240.135,66.31l-5.306,5.306l-1.429-1.429l6.734-6.734v-3.061l-5.306,5.306l-1.429-1.429l6.734-6.734v-6.53h2.041v26.529
		h-2.041V66.31z"/>
	<path d="M246.258,51.004h1.43l9.318,9.319l-7.891,7.891l7.891,7.891l-1.428,1.429l-7.279-7.278v7.278h-2.041V51.004z
		 M254.15,60.324l-5.851-5.85v11.699L254.15,60.324z"/>
	<path d="M261.361,66.718l-2.925,2.925l-1.429-1.429l4.354-4.354V51.004h2.041V61.82l2.925-2.925l1.429,1.429l-4.354,4.354v12.856
		h-2.041V66.718z"/>
	<path d="M270.818,58.351c0-1.395,1.156-2.551,2.551-2.551s2.551,1.156,2.551,2.551s-1.156,2.551-2.551,2.551
		S270.818,59.746,270.818,58.351z M270.818,70.187c0-1.395,1.156-2.551,2.551-2.551s2.551,1.156,2.551,2.551
		s-1.156,2.551-2.551,2.551S270.818,71.582,270.818,70.187z"/>
	<path d="M286.77,63.351l-5.307,5.306h-1.428V51.004h2.04v14.183l5.307-5.306h1.428v17.652h-2.04V63.351z"/>
	<path d="M298.642,63.351l-5.306,5.306l-1.429-1.429l6.734-6.734v-9.489h2.04v26.529h-2.04V63.351z"/>
	<path d="M304.765,51.004h1.428l9.319,9.319l-7.891,7.891l7.891,7.891l-1.428,1.429l-7.279-7.278v7.278h-2.04V51.004z
		 M312.656,60.324l-5.851-5.85v11.699L312.656,60.324z"/>
	<path d="M319.595,58.351c0-1.395,1.156-2.551,2.551-2.551s2.551,1.156,2.551,2.551s-1.156,2.551-2.551,2.551
		S319.595,59.746,319.595,58.351z M319.595,70.187c0-1.395,1.156-2.551,2.551-2.551s2.551,1.156,2.551,2.551
		s-1.156,2.551-2.551,2.551S319.595,71.582,319.595,70.187z"/>
	<path d="M335.548,63.351l-5.307,5.306h-1.428V51.004h2.04v14.183l5.307-5.306h1.428v17.652h-2.04V63.351z"/>
	<path d="M341.705,51.004h1.428l9.319,9.319v17.21h-2.04V61.14l-6.667-6.666v23.06h-2.04V51.004z"/>
	<path d="M362.863,64.677l-6.326-6.326v-7.347h2.04v6.53l4.286,4.285V51.004h2.04V61.82l4.286-4.285v-6.53h2.04v7.347l-6.326,6.326
		v12.856h-2.04V64.677z"/>
	<path d="M375.312,58.351c0-1.395,1.156-2.551,2.551-2.551s2.551,1.156,2.551,2.551s-1.156,2.551-2.551,2.551
		S375.312,59.746,375.312,58.351z M375.312,70.187c0-1.395,1.156-2.551,2.551-2.551s2.551,1.156,2.551,2.551
		s-1.156,2.551-2.551,2.551S375.312,71.582,375.312,70.187z"/>
	<path d="M384.531,51.004h1.428l7.347,7.347l-1.428,1.429l-5.307-5.306v23.06h-2.04V51.004z"/>
	<path d="M400.04,66.31l-5.307,5.306l-1.428-1.429l6.734-6.734v-3.061l-5.307,5.306l-1.428-1.429l6.734-6.734v-6.53h2.04v26.529
		h-2.04V66.31z"/>
	<path d="M410.518,66.718l-2.926,2.925l-1.428-1.429l3.945-3.945l-3.945-3.945l1.428-1.429l2.926,2.925V51.004h2.04V61.82
		l2.926-2.925l1.428,1.429l-3.945,3.945l3.945,3.945l-1.428,1.429l-2.926-2.925v10.815h-2.04V66.718z"/>
	<path d="M420.994,58.351c0-1.395,1.156-2.551,2.551-2.551s2.551,1.156,2.551,2.551s-1.156,2.551-2.551,2.551
		S420.994,59.746,420.994,58.351z M420.994,70.187c0-1.395,1.156-2.551,2.551-2.551s2.551,1.156,2.551,2.551
		s-1.156,2.551-2.551,2.551S420.994,71.582,420.994,70.187z"/>
	<path d="M433.545,66.718l-2.925,2.925l-1.429-1.429l4.354-4.354V51.004h2.041V61.82l2.925-2.925l1.429,1.429l-4.354,4.354v12.856
		h-2.041V66.718z"/>
	<path d="M443.002,51.004h1.428l9.319,9.319l-7.891,7.891l7.891,7.891l-1.428,1.429l-7.279-7.278v7.278h-2.04V51.004z
		 M450.893,60.324l-5.851-5.85v11.699L450.893,60.324z"/>
	<path d="M458.105,66.718l-2.925,2.925l-1.429-1.429l4.354-4.354V51.004h2.041V61.82l2.925-2.925l1.429,1.429l-4.354,4.354v12.856
		h-2.041V66.718z"/>
	<path d="M467.561,58.351c0-1.395,1.156-2.551,2.551-2.551s2.551,1.156,2.551,2.551s-1.156,2.551-2.551,2.551
		S467.561,59.746,467.561,58.351z M467.561,70.187c0-1.395,1.156-2.551,2.551-2.551s2.551,1.156,2.551,2.551
		s-1.156,2.551-2.551,2.551S467.561,71.582,467.561,70.187z"/>
	<path d="M35.382,98.909l-5.306,5.306l-1.429-1.429l6.734-6.734v-3.061l-5.306,5.306l-1.429-1.429l6.734-6.734v-6.53h2.041v26.529
		h-2.041V98.909z"/>
	<path d="M43.546,110.132h-2.041V83.603h2.041v11.224l4.693-4.693v-6.53h2.041v7.347l-6.734,6.734V110.132z"/>
	<path d="M54.363,90.95c0-1.395,1.157-2.551,2.551-2.551s2.551,1.156,2.551,2.551S58.309,93.5,56.914,93.5
		S54.363,92.344,54.363,90.95z M54.363,102.786c0-1.395,1.157-2.551,2.551-2.551s2.551,1.156,2.551,2.551s-1.156,2.551-2.551,2.551
		S54.363,104.18,54.363,102.786z"/>
	<path d="M65.622,110.132h-2.041V83.603h2.041v11.224l4.693-4.693v-6.53h2.041v7.347l-6.734,6.734V110.132z"/>
	<path d="M76.439,83.603h1.429l9.319,9.319v17.21h-2.041V93.739l-6.666-6.666v23.06h-2.041V83.603z"/>
	<path d="M91.269,83.603h2.041v9.489l6.734,6.734l-1.429,1.429L93.31,95.95v14.183h-2.041V83.603z"/>
	<path d="M103.106,83.603h1.429l9.319,9.319v17.21h-2.041V93.739l-6.666-6.666v23.06h-2.041V83.603z"/>
	<path d="M119.978,110.132h-2.041V83.603h2.041v11.224l4.693-4.693v-6.53h2.041v7.347l-6.734,6.734V110.132z M120.794,85.133
		c0-0.85,0.68-1.53,1.53-1.53s1.531,0.681,1.531,1.53c0,0.851-0.681,1.531-1.531,1.531S120.794,85.984,120.794,85.133z"/>
	<path d="M130.795,90.95c0-1.395,1.157-2.551,2.551-2.551s2.551,1.156,2.551,2.551s-1.156,2.551-2.551,2.551
		S130.795,92.344,130.795,90.95z M130.795,102.786c0-1.395,1.157-2.551,2.551-2.551s2.551,1.156,2.551,2.551
		s-1.156,2.551-2.551,2.551S130.795,104.18,130.795,102.786z"/>
	<path d="M140.012,83.603h2.041v7.278l7.278-7.278l1.429,1.429l-8.707,8.707v3.061l7.278-7.278l1.429,1.429l-8.707,8.707v10.476
		h-2.041V83.603z"/>
	<path d="M154.843,83.603h2.041v26.529h-2.041V83.603z"/>
	<path d="M160.966,83.603h1.429l9.319,9.319l-7.891,7.891l7.891,7.891l-1.429,1.429l-7.278-7.278v7.278h-2.041V83.603z
		 M168.857,92.922l-5.85-5.85v11.699L168.857,92.922z"/>
	<path d="M175.796,83.603h2.041v26.529h-2.041V83.603z"/>
	<path d="M187.633,87.073l-5.306,5.306l-1.428-1.429l7.346-7.347h1.429v26.529h-2.041V87.073z"/>
	<path d="M193.756,83.603h2.041v26.529h-2.041V83.603z"/>
	<path d="M199.879,83.603h1.429l9.319,9.319v17.21h-2.041V93.739l-6.666-6.666v23.06h-2.041V83.603z"/>
	<path d="M219.063,99.317l-2.925,2.925l-1.429-1.429l3.945-3.945l-3.945-3.945l1.429-1.429l2.925,2.925V83.603h2.041v10.815
		l2.925-2.925l1.429,1.429l-3.945,3.945l3.945,3.945l-1.429,1.429l-2.925-2.925v10.815h-2.041V99.317z"/>
	<path d="M229.54,83.603h1.429l9.319,9.319v17.21h-2.041V93.739l-6.666-6.666v23.06h-2.041V83.603z"/>
	<path d="M244.37,90.95c0-1.395,1.157-2.551,2.551-2.551s2.551,1.156,2.551,2.551s-1.156,2.551-2.551,2.551
		S244.37,92.344,244.37,90.95z M244.37,102.786c0-1.395,1.157-2.551,2.551-2.551s2.551,1.156,2.551,2.551s-1.156,2.551-2.551,2.551
		S244.37,104.18,244.37,102.786z"/>
	<path d="M259.914,97.276l-6.326-6.326v-7.347h2.041v6.53l4.285,4.285V83.603h2.041v10.815l4.285-4.285v-6.53h2.041v7.347
		l-6.326,6.326v12.856h-2.041V97.276z"/>
	<path d="M276.038,95.95l-5.306,5.306l-1.429-1.429l6.734-6.734v-9.489h2.04v26.529h-2.04V95.95z"/>
	<path d="M282.161,83.603h1.428l9.319,9.319l-7.891,7.891l7.891,7.891l-1.428,1.429l-7.279-7.278v7.278h-2.04V83.603z
		 M290.052,92.922l-5.851-5.85v11.699L290.052,92.922z"/>
	<path d="M299.031,110.132h-2.04V83.603h2.04v11.224l4.694-4.693v-6.53h2.04v7.347l-6.734,6.734V110.132z"/>
	<path d="M309.85,90.95c0-1.395,1.156-2.551,2.551-2.551s2.551,1.156,2.551,2.551s-1.156,2.551-2.551,2.551
		S309.85,92.344,309.85,90.95z M309.85,102.786c0-1.395,1.156-2.551,2.551-2.551s2.551,1.156,2.551,2.551s-1.156,2.551-2.551,2.551
		S309.85,104.18,309.85,102.786z"/>
	<path d="M324.781,95.95l-5.306,5.306l-1.429-1.429l6.734-6.734v-9.489h2.041v26.529h-2.041V95.95z"/>
	<path d="M332.945,110.132h-2.04V83.603h2.04v11.224l4.694-4.693v-6.53h2.04v7.347l-6.734,6.734V110.132z"/>
	<path d="M343.762,90.95c0-1.395,1.156-2.551,2.551-2.551s2.551,1.156,2.551,2.551s-1.156,2.551-2.551,2.551
		S343.762,92.344,343.762,90.95z M343.762,102.786c0-1.395,1.156-2.551,2.551-2.551s2.551,1.156,2.551,2.551
		s-1.156,2.551-2.551,2.551S343.762,104.18,343.762,102.786z"/>
	<path d="M357.334,99.317l-2.926,2.925l-1.428-1.429l3.945-3.945l-3.945-3.945l1.428-1.429l2.926,2.925V83.603h2.04v10.815
		l2.926-2.925l1.428,1.429l-3.945,3.945l3.945,3.945l-1.428,1.429l-2.926-2.925v10.815h-2.04V99.317z"/>
	<path d="M367.811,83.603h2.04v26.529h-2.04V83.603z"/>
	<path d="M373.934,83.603h2.04v9.489l6.734,6.734l-1.428,1.429l-5.307-5.306v14.183h-2.04V83.603z"/>
	<path d="M385.771,83.603h1.428l9.319,9.319v17.21h-2.04V93.739l-6.667-6.666v23.06h-2.04V83.603z"/>
	<path d="M406.927,97.276l-6.326-6.326v-7.347h2.04v6.53l4.286,4.285V83.603h2.04v10.815l4.286-4.285v-6.53h2.04v7.347l-6.326,6.326
		v12.856h-2.04V97.276z"/>
	<path d="M419.377,90.95c0-1.395,1.156-2.551,2.551-2.551s2.551,1.156,2.551,2.551s-1.156,2.551-2.551,2.551
		S419.377,92.344,419.377,90.95z M419.377,102.786c0-1.395,1.156-2.551,2.551-2.551s2.551,1.156,2.551,2.551
		s-1.156,2.551-2.551,2.551S419.377,104.18,419.377,102.786z"/>
	<path d="M431.929,99.317l-2.925,2.925l-1.429-1.429l4.354-4.354V83.603h2.041v10.815l2.925-2.925l1.429,1.429l-4.354,4.354v12.856
		h-2.041V99.317z"/>
	<path d="M441.385,83.603h1.428l9.319,9.319l-7.891,7.891l7.891,7.891l-1.428,1.429l-7.279-7.278v7.278h-2.04V83.603z
		 M449.276,92.922l-5.851-5.85v11.699L449.276,92.922z"/>
	<path d="M456.216,90.95c0-1.395,1.156-2.551,2.551-2.551s2.551,1.156,2.551,2.551s-1.156,2.551-2.551,2.551
		S456.216,92.344,456.216,90.95z M456.216,102.786c0-1.395,1.156-2.551,2.551-2.551s2.551,1.156,2.551,2.551
		s-1.156,2.551-2.551,2.551S456.216,104.18,456.216,102.786z"/>
	<path d="M22.848,128.547l-5.306,5.306h-1.429v-17.652h2.041v14.183l5.306-5.306h1.429v17.652h-2.041V128.547z"/>
	<path d="M34.72,128.547l-5.306,5.306l-1.428-1.429l6.734-6.734v-9.489h2.041v26.529H34.72V128.547z"/>
	<path d="M40.843,116.201h1.429l9.319,9.319l-7.891,7.891l7.891,7.891l-1.429,1.429l-7.278-7.278v7.278h-2.041V116.201z
		 M48.734,125.52l-5.85-5.85v11.699L48.734,125.52z"/>
	<path d="M55.673,123.547c0-1.395,1.157-2.551,2.551-2.551c1.394,0,2.551,1.156,2.551,2.551s-1.157,2.551-2.551,2.551
		C56.83,126.098,55.673,124.942,55.673,123.547z M55.673,135.383c0-1.395,1.157-2.551,2.551-2.551c1.394,0,2.551,1.156,2.551,2.551
		s-1.157,2.551-2.551,2.551C56.83,137.934,55.673,136.778,55.673,135.383z"/>
	<path d="M64.891,116.201h2.041v7.278l7.278-7.278l1.429,1.429l-8.707,8.707v3.061l7.278-7.278l1.429,1.429l-8.707,8.707v10.476
		h-2.041V116.201z"/>
	<path d="M79.722,116.201h2.041v26.529h-2.041V116.201z"/>
	<path d="M87.885,142.73h-2.041v-26.529h2.041v11.224l4.693-4.693v-6.53h2.041v7.347l-6.734,6.734V142.73z"/>
	<path d="M98.702,123.547c0-1.395,1.157-2.551,2.551-2.551s2.551,1.156,2.551,2.551s-1.156,2.551-2.551,2.551
		S98.702,124.942,98.702,123.547z M98.702,135.383c0-1.395,1.157-2.551,2.551-2.551s2.551,1.156,2.551,2.551
		s-1.156,2.551-2.551,2.551S98.702,136.778,98.702,135.383z"/>
	<path d="M107.92,116.201h2.041v7.278l7.278-7.278l1.429,1.429l-8.707,8.707v3.061l7.278-7.278l1.429,1.429l-8.707,8.707v10.476
		h-2.041V116.201z"/>
	<path d="M122.751,116.201h2.041v26.529h-2.041V116.201z"/>
	<path d="M128.873,116.201h1.429l9.319,9.319l-7.891,7.891l7.891,7.891l-1.429,1.429l-7.278-7.278v7.278h-2.041V116.201z
		 M136.764,125.52l-5.85-5.85v11.699L136.764,125.52z"/>
	<path d="M143.704,116.201h2.041v26.529h-2.041V116.201z"/>
	<path d="M155.541,119.67l-5.306,5.306l-1.428-1.429l7.346-7.347h1.429v26.529h-2.041V119.67z"/>
	<path d="M161.663,116.201h2.041v26.529h-2.041V116.201z"/>
	<path d="M167.786,116.201h1.429l9.319,9.319v17.21h-2.041v-16.394l-6.666-6.666v23.06h-2.041V116.201z"/>
	<path d="M186.97,131.915l-2.925,2.925l-1.429-1.429l3.945-3.945l-3.945-3.945l1.429-1.429l2.925,2.925v-10.815h2.041v10.815
		l2.925-2.925l1.429,1.429l-3.945,3.945l3.945,3.945l-1.429,1.429l-2.925-2.925v10.815h-2.041V131.915z"/>
	<path d="M197.447,116.201h1.429l9.319,9.319v17.21h-2.041v-16.394l-6.666-6.666v23.06h-2.041V116.201z"/>
	<path d="M212.278,123.547c0-1.395,1.157-2.551,2.551-2.551c1.394,0,2.551,1.156,2.551,2.551s-1.157,2.551-2.551,2.551
		C213.434,126.098,212.278,124.942,212.278,123.547z M212.278,135.383c0-1.395,1.157-2.551,2.551-2.551
		c1.394,0,2.551,1.156,2.551,2.551s-1.157,2.551-2.551,2.551C213.434,137.934,212.278,136.778,212.278,135.383z"/>
	<path d="M227.822,129.874l-6.326-6.326v-7.347h2.041v6.53l4.285,4.285v-10.815h2.041v10.815l4.285-4.285v-6.53h2.041v7.347
		l-6.326,6.326v12.856h-2.041V129.874z"/>
	<path d="M243.945,128.547l-5.306,5.306l-1.428-1.429l6.734-6.734v-9.489h2.041v26.529h-2.041V128.547z"/>
	<path d="M250.069,116.201h1.428l9.319,9.319l-7.891,7.891l7.891,7.891l-1.428,1.429l-7.279-7.278v7.278h-2.04V116.201z
		 M257.959,125.52l-5.851-5.85v11.699L257.959,125.52z"/>
	<path d="M266.939,142.73h-2.04v-26.529h2.04v11.224l4.694-4.693v-6.53h2.04v7.347l-6.734,6.734V142.73z"/>
	<path d="M277.757,123.547c0-1.395,1.156-2.551,2.551-2.551s2.551,1.156,2.551,2.551s-1.156,2.551-2.551,2.551
		S277.757,124.942,277.757,123.547z M277.757,135.383c0-1.395,1.156-2.551,2.551-2.551s2.551,1.156,2.551,2.551
		s-1.156,2.551-2.551,2.551S277.757,136.778,277.757,135.383z"/>
	<path d="M286.975,116.201h2.04v7.278l7.279-7.278l1.428,1.429l-8.707,8.707v3.061l7.279-7.278l1.428,1.429l-8.707,8.707v10.476
		h-2.04V116.201z"/>
	<path d="M305.479,131.506l-5.307,5.306l-1.428-1.429l6.734-6.734v-3.061l-5.307,5.306l-1.428-1.429l6.734-6.734v-6.53h2.04v26.529
		h-2.04V131.506z"/>
	<path d="M311.602,116.201h1.428l9.319,9.319l-7.891,7.891l7.891,7.891l-1.428,1.429l-7.279-7.278v7.278h-2.04V116.201z
		 M319.492,125.52l-5.851-5.85v11.699L319.492,125.52z"/>
	<path d="M326.704,131.915l-2.925,2.925l-1.429-1.429l4.354-4.354v-12.856h2.041v10.815l2.925-2.925l1.429,1.429l-4.354,4.354
		v12.856h-2.041V131.915z"/>
	<path d="M336.16,123.547c0-1.395,1.156-2.551,2.551-2.551s2.551,1.156,2.551,2.551s-1.156,2.551-2.551,2.551
		S336.16,124.942,336.16,123.547z M336.16,135.383c0-1.395,1.156-2.551,2.551-2.551s2.551,1.156,2.551,2.551
		s-1.156,2.551-2.551,2.551S336.16,136.778,336.16,135.383z"/>
	<path d="M345.379,116.201h2.04v7.278l7.279-7.278l1.428,1.429l-8.707,8.707v3.061l7.279-7.278l1.428,1.429l-8.707,8.707v10.476
		h-2.04V116.201z"/>
	<path d="M360.209,116.201h1.428l9.319,9.319l-7.891,7.891l7.891,7.891l-1.428,1.429l-7.279-7.278v7.278h-2.04V116.201z
		 M368.1,125.52l-5.851-5.85v11.699L368.1,125.52z"/>
	<path d="M375.039,116.201h2.04v26.529h-2.04V116.201z"/>
	<path d="M381.162,116.201h2.04v4.558l8.707,8.707l-8.707,8.707v4.558h-2.04V116.201z M389.053,129.465l-5.851-5.85v11.699
		L389.053,129.465z"/>
	<path d="M394.972,116.201h1.428l7.347,7.347l-5.918,5.918l5.918,5.918l-7.347,7.347h-1.428V116.201z M400.89,123.547l-3.878-3.877
		v7.754L400.89,123.547z M400.89,135.383l-3.878-3.877v7.755L400.89,135.383z"/>
	<path d="M407.83,116.201h1.428l9.319,9.319l-7.891,7.891l7.891,7.891l-1.428,1.429l-7.279-7.278v7.278h-2.04V116.201z
		 M415.721,125.52l-5.851-5.85v11.699L415.721,125.52z"/>
	<path d="M422.66,116.201h1.428l9.319,9.319v17.21h-2.04v-16.394l-6.667-6.666v23.06h-2.04V116.201z"/>
	<path d="M443.204,119.67l-5.306,5.306l-1.429-1.429l7.347-7.347h1.428v26.529h-2.04V119.67z"/>
	<path d="M449.328,123.547c0-1.395,1.156-2.551,2.551-2.551s2.551,1.156,2.551,2.551s-1.156,2.551-2.551,2.551
		S449.328,124.942,449.328,123.547z M449.328,135.383c0-1.395,1.156-2.551,2.551-2.551s2.551,1.156,2.551,2.551
		s-1.156,2.551-2.551,2.551S449.328,136.778,449.328,135.383z"/>
	<path d="M458.546,129.465c0-1.7,1.36-3.062,3.061-3.062c1.701,0,3.062,1.361,3.062,3.062s-1.36,3.062-3.062,3.062
		C459.906,132.527,458.546,131.166,458.546,129.465z"/>
	<path d="M468.75,123.547c0-1.395,1.156-2.551,2.551-2.551s2.551,1.156,2.551,2.551s-1.156,2.551-2.551,2.551
		S468.75,124.942,468.75,123.547z M468.75,135.383c0-1.395,1.156-2.551,2.551-2.551s2.551,1.156,2.551,2.551
		s-1.156,2.551-2.551,2.551S468.75,136.778,468.75,135.383z"/>
</g>
</svg>
